<svg xmlns="http://www.w3.org/2000/svg" width="15.516" height="20" viewBox="0 0 15.516 20"><defs><style>.a{fill:#f3f3f3;}</style></defs><g transform="translate(0)"><path class="a" d="M175.207,404.514c0,.006,0,.012,0,.019a2.833,2.833,0,1,0,5.665,0c0-.006,0-.012,0-.019Z" transform="translate(-170.282 -387.365)"/><path class="a" d="M66.822,14.009l-2.134-3V7.271a5.266,5.266,0,0,0-4.371-5.1V1.02a1.067,1.067,0,0,0-2.132,0V2.171a5.266,5.266,0,0,0-4.371,5.1v3.741l-2.134,3a.993.993,0,0,0-.062,1.062,1.086,1.086,0,0,0,.953.549h13.36a1.086,1.086,0,0,0,.953-.549A.993.993,0,0,0,66.822,14.009Z" transform="translate(-51.493)"/></g></svg>