<svg xmlns="http://www.w3.org/2000/svg" width="317.783" height="216.122" viewBox="0 0 317.783 216.122"><defs><style>.a{fill:#fff;}.a,.b,.c,.d,.e,.h,.i,.j,.k,.l,.m,.n,.o,.p,.q,.r,.s,.t,.u,.v,.y{fill-rule:evenodd;}.b,.g{fill:#ff7575;}.c{fill:#c25959;}.d{fill:#c7d86e;}.e{fill:#a4b359;}.f,.l{fill:#333;}.h{fill:#7f7fc9;}.i{fill:#59598f;}.j{fill:#f9ba91;}.k{fill:#cf8263;}.m{fill:#576d75;}.n{fill:#46565c;}.o,.x{fill:#ff9068;}.p{fill:#81a3af;}.q,.w{fill:#ffbd68;}.r{fill:#212121;}.s{fill:#3d4d52;}.t{fill:#63636b;}.u{fill:#d4dbd0;}.v{fill:#a9b5a3;}.y{fill:#7f808a;}</style></defs><g transform="translate(-524.41 -340.939)"><path class="a" d="M562.421,746.183c-9-4.488-13.6-13.463-14.37-24.855s2.3-25.2,15.89-42.952,37.7-39.451,60.555-55.042,44.464-25.076,62.9-25.559,33.7,8.034,42.072,24.683,9.87,41.428,23,51.555,37.888,5.6,56.076,5.311,29.8,3.655,38.133,13.517,13.37,25.643,13.26,36.268-5.37,16.093-10.63,18.827-10.52,2.734-28.565,2.734H600.656c-15.835,0-29.234,0-38.235-4.487" transform="translate(-17.74 -193.609)"/><path class="b" d="M1656.158,1131.213h24.136s-.789,7.207-2.365,21.621h-19.406l-2.365-21.621" transform="translate(-853.204 -595.773)"/><path class="c" d="M1656.158,1131.213h24.136l-.256,2.347h-23.623Z" transform="translate(-853.204 -595.773)"/><path class="d" d="M1653.143,885.627h9.483a10.734,10.734,0,0,0,10.7-10.7V840.97a10.734,10.734,0,0,0-10.7-10.7h-9.483a10.734,10.734,0,0,0-10.7,10.7v33.955a10.734,10.734,0,0,0,10.7,10.7" transform="translate(-842.863 -368.895)"/><path class="e" d="M1666.714,859.567a.843.843,0,1,1-.843.842.843.843,0,0,1,.843-.842m-3.771,3.918a1.032,1.032,0,1,1-1.032,1.032A1.033,1.033,0,0,1,1662.943,863.486Zm-13.332,6.026a1.184,1.184,0,1,1-1.185,1.184A1.184,1.184,0,0,1,1649.611,869.511Zm-3.355,16.475a.7.7,0,1,1-.695.7A.7.7,0,0,1,1646.256,885.986Zm2.116,2.233a1.842,1.842,0,1,1-1.841,1.842A1.842,1.842,0,0,1,1648.372,888.219Zm4.584,2.865a1.243,1.243,0,1,1-1.243,1.243A1.243,1.243,0,0,1,1652.956,891.085Zm.21-3.877a.7.7,0,1,1-.7.7A.695.695,0,0,1,1653.167,887.208Zm-4.886-39.223a1.32,1.32,0,1,1-1.32,1.32A1.32,1.32,0,0,1,1648.28,847.985Zm-.7,3.512a.506.506,0,1,1-.505.505A.506.506,0,0,1,1647.578,851.5Zm3.287-4.466a.815.815,0,1,1-.815.814A.814.814,0,0,1,1650.865,847.03Zm2.278,51.235h9.483a10.734,10.734,0,0,0,10.7-10.7V853.57l-9.4,3.6a1.832,1.832,0,1,1-2.691,1.031l-18.794,7.2v22.163A10.734,10.734,0,0,0,1653.143,898.265Z" transform="translate(-842.863 -381.533)"/><path class="f" d="M1686.569,911.874a.9.9,0,0,1,1.222,1.313l-7.109,6.64v26.2a.9.9,0,0,1-1.8,0V912.919l-7.111-6.642a.9.9,0,0,1,1.223-1.314l5.888,5.5V899.1l-7.109-6.641a.9.9,0,1,1,1.221-1.313l5.888,5.5v-8.7a.9.9,0,1,1,1.8,0v15.607l5.887-5.5a.9.9,0,1,1,1.222,1.313l-7.109,6.641v11.365Z" transform="translate(-864.761 -411.701)"/><rect class="g" width="28.452" height="4.253" transform="translate(800.795 531.849)"/><path class="d" d="M542.109,838.274h12.246a17.75,17.75,0,0,0,17.7-17.7V777.816a17.75,17.75,0,0,0-17.7-17.7H542.109a17.751,17.751,0,0,0-17.7,17.7v42.759a17.751,17.751,0,0,0,17.7,17.7" transform="translate(0 -316.01)"/><path class="e" d="M538.24,805.539a.972.972,0,1,1-.972.972.972.972,0,0,1,.972-.972m-7.173-8.58a1.173,1.173,0,1,1-1.173,1.173A1.173,1.173,0,0,1,531.067,796.959Zm30.6,18.5a.8.8,0,1,1-.8.8A.8.8,0,0,1,561.668,815.46Zm-19.559,37.211h12.246a17.751,17.751,0,0,0,17.7-17.7V817.083l-11.591-6.068a2.715,2.715,0,0,1-4.8-2.513L524.411,792.14v42.831A17.751,17.751,0,0,0,542.109,852.671Zm20.344-7.9a.9.9,0,1,1-.9.9A.9.9,0,0,1,562.452,844.772Zm-4.06-6.644a1.025,1.025,0,1,1-1.025,1.025A1.025,1.025,0,0,1,558.392,838.127Zm-1.312,3.2a2.5,2.5,0,1,1-2.5,2.5A2.5,2.5,0,0,1,557.08,841.326Zm1.747-58.482a2.313,2.313,0,1,1-2.313,2.313A2.312,2.312,0,0,1,558.827,782.844Zm2.849,5.832a.871.871,0,1,1-.871.871A.871.871,0,0,1,561.676,788.676Zm-2.748,1.676a1.072,1.072,0,1,1-1.073,1.072A1.072,1.072,0,0,1,558.928,790.352Zm-9.514-11.138a1.457,1.457,0,1,1-1.457,1.456A1.457,1.457,0,0,1,549.413,779.214ZM532.147,800.55a3.5,3.5,0,1,1-3.5,3.5A3.5,3.5,0,0,1,532.147,800.55Z" transform="translate(0 -330.407)"/><path class="f" d="M601.113,913.67a.968.968,0,1,1,1.319,1.416l-7.668,7.162v43.7q-1-.309-1.939-.664V914.8l-7.669-7.164a.968.968,0,0,1,1.318-1.417l6.351,5.933v-12.26l-7.668-7.162a.967.967,0,1,1,1.317-1.417l6.351,5.932v-9.381a.97.97,0,1,1,1.939,0v16.834l6.35-5.931a.968.968,0,1,1,1.318,1.417l-7.668,7.163V919.6Z" transform="translate(-45.563 -411.583)"/><path class="h" d="M1068.912,659.809l-3.015-10.2-.025-.064-.977,9.592Zm38.3-32.554,3.375,12.235-.622.022a1.44,1.44,0,0,0-1.088,1.421s-.7,6.639-2.11,19.918l-2.661-8.361.086,7.474,2.317,7.225-.284,2.717-48.337-.054c-1.83-.133-2.542-1.067-3.017-3.443a109.6,109.6,0,0,1,2.544-36.1q1.62-6.143,6.794-7.594l9.326-2.931a2.758,2.758,0,0,1,2.462-.922l14.006,1.389a84.325,84.325,0,0,1,13.173,3.063A5.718,5.718,0,0,1,1107.217,627.255Z" transform="translate(-399.535 -209.497)"/><path class="i" d="M1087.019,771.5q-2.215.467-3.055,4.408-1.279-5.471,3.386-7.658Zm-.01.094a.352.352,0,0,1,.01-.094Z" transform="translate(-421.631 -322.143)"/><path class="i" d="M1249.6,717.464l-.816,7.709-2.661-8.361.013,1.146-3.38-13.026a.892.892,0,0,1,1.439-.586Z" transform="translate(-541.549 -273.82)"/><path class="i" d="M1106.514,730.173l-.284,2.717-48.338-.054c-1.83-.133-2.542-1.068-3.016-3.443a112,112,0,0,1,.732-27.013q-.517,16.521,1.4,24.67a2.705,2.705,0,0,0,2.5,2.238l29.123,1.941a6.308,6.308,0,0,1,1.746-6.043l-17.126-2.083-4.343-.306-3.015-10.2.151.3,1.109-8.981a1.021,1.021,0,0,1,1.788.109l8.846,17.531a1.992,1.992,0,0,0,2.052.986l24.354.4Z" transform="translate(-399.535 -272.484)"/><path class="j" d="M1217.339,801l-2.814-.942a4.936,4.936,0,0,0-3-.966l-9.674-1.258a9.192,9.192,0,0,0-.132,6.308,4.093,4.093,0,0,0,1.779.7l6.829.007c.461,0,.72.04,1.028-.265a1.327,1.327,0,0,0,.67.273h4.915Z" transform="translate(-510.24 -344.441)"/><path class="k" d="M1201.417,815.135a9.2,9.2,0,0,0,.324,1.661H1217.2l.172-1.661Z" transform="translate(-510.383 -357.488)"/><path class="l" d="M1135.018,794.044h-.727a.212.212,0,0,1,.179-.192.519.519,0,0,0,.37-.251.517.517,0,0,0,.04-.445l0-.008a9.105,9.105,0,0,1,.148-6.1,1,1,0,0,0-.185-.256h0a1,1,0,0,0-.3-.208l-21.516-2.617-.132-.445,21.724,2.644a.212.212,0,0,1,.057.014,1.432,1.432,0,0,1,.471.313h0a1.425,1.425,0,0,1,.312.473.216.216,0,0,1,0,.157,8.666,8.666,0,0,0-.176,5.888.948.948,0,0,1,.054.412.946.946,0,0,1-.316.624" transform="translate(-443.644 -333.654)"/><path class="i" d="M1129.918,619.958l.568-.178a2.758,2.758,0,0,1,2.462-.922l14.006,1.389q2.3.378,4.355.788a11.977,11.977,0,0,1-9.1,6.143c-6.074.72-9.734-2.294-12.295-7.22" transform="translate(-456.482 -209.497)"/><path class="l" d="M1087.115,662.045a3.34,3.34,0,0,0-1.605,1.14,6.18,6.18,0,0,0-1.092,2.754.284.284,0,1,1-.559-.1,6.734,6.734,0,0,1,1.2-3.006,3.893,3.893,0,0,1,1.927-1.348c.061-.019.124-.038.187-.055v.012l-.008.072-.007.068-.007.063-.006.059-.006.053-.005.049,0,.044,0,.04,0,.035,0,.031,0,.026,0,.021v.037Zm.977-9.592.971-8.366a.284.284,0,0,1,.564.064l-1.017,8.762.014.9,0-.013-.045-.115-.043-.109-.041-.1-.039-.1-.037-.095-.034-.089-.033-.084-.031-.079-.029-.074-.027-.069-.025-.064-.023-.059-.021-.053-.019-.048-.017-.043-.014-.038-.013-.033-.01-.028-.009-.023-.007-.018,0-.013,0-.007Zm7.1-29.589.568-.178a11.189,11.189,0,0,0,4.573,3.779,13.232,13.232,0,0,0,6.69.891.283.283,0,1,1,.053.564,13.791,13.791,0,0,1-6.97-.935A11.8,11.8,0,0,1,1095.191,622.863Zm31.139,32.531.026,2.292a.261.261,0,0,1-.043-.092l-3.694-14.289a.283.283,0,1,1,.548-.142Z" transform="translate(-421.755 -212.403)"/><path class="j" d="M1152.573,661.262a12.276,12.276,0,0,1-.062-7.927l3.076-.063a12.174,12.174,0,0,1,2.378-1.015l6.595-.951a4.652,4.652,0,0,1,3.108.127,31.8,31.8,0,0,1,4.847,2.607l2.824,1.575c1.687,1.161.848,2.715-.346,2.571.635.962.359,2.007-.96,1.965a4.718,4.718,0,0,1-2.348-.9l-2.462-.842.792,1.046a1.508,1.508,0,0,1,.127,1.839l-1.443,1.094a1.165,1.165,0,0,1-.207,1.6l-2.98.571a1.355,1.355,0,0,1-1.49-1.094q-7.471.061-9.418-1.9l-2.03-.3" transform="translate(-473.041 -233.823)"/><path class="k" d="M1184.869,663.562l-.926-.789a.212.212,0,1,1,.275-.323l1.073.914.021-.01.057-.677a.213.213,0,1,1,.424.035l-.036.433.234-.11a.212.212,0,1,1,.18.384l-.55.258-.03.014,0,0h0l-.232.108,0,0,0,0,0,0-1.57.736a1.277,1.277,0,0,0-.381.407,1.263,1.263,0,0,0-.172.546,1.273,1.273,0,0,0,.392,1.021.82.82,0,0,0,.349.113.835.835,0,0,0,.37-.051l2.129-.8a1.159,1.159,0,0,1,.186.382h0l-2.133.8-.024.01a1.266,1.266,0,0,1-.562.08,1.25,1.25,0,0,1-.551-.184.213.213,0,0,1-.046-.038,1.7,1.7,0,0,1-.42-.615,1.819,1.819,0,0,1-.065-.2l-.537.2-.007,0-.005,0-.006,0,0,0,0,0h0l-.026.013,0,0h0l0,0,0,0,0,0h0a.891.891,0,0,0-.45.6h-.217a.944.944,0,0,1,.575-1.031l.016-.006.634-.24c0-.039,0-.078.005-.117h0a1.685,1.685,0,0,1,.758-1.282l.026-.015h0Zm7.881-1.982a2.027,2.027,0,0,1,.286.636L1189.374,660l-.021.026a.223.223,0,0,1-.042.039,6.638,6.638,0,0,1-2.606,1.154c-.108.02-.215.037-.323.052l.6.533.62.818-2.07-1.3a6.6,6.6,0,0,1-1.6-.221l-1.881-.317a4.278,4.278,0,0,1-2.221,1.5,14.71,14.71,0,0,1-4.167.639.213.213,0,1,1-.014-.425,14.273,14.273,0,0,0,4.042-.617,4.1,4.1,0,0,0,1.887-1.179l-.889-.149a.213.213,0,1,1,.07-.42l3.247.546h0l.019,0a5.817,5.817,0,0,0,2.6.113,6.206,6.206,0,0,0,2.415-1.065.81.81,0,0,0,.067-.1h0l0,0v0h0l0,0h0l0,0v0h0a.868.868,0,0,0,.093-.322h0a.873.873,0,0,0-.46-.849l-.011-.005a.869.869,0,0,0-.5-.089h-.012a6.233,6.233,0,0,1-2.12-.328,20.977,20.977,0,0,1-2.918-1.174.214.214,0,0,1-.075-.05,2.358,2.358,0,0,0-1.1-.61,5.649,5.649,0,0,0-1.741-.145.212.212,0,1,1-.02-.424,6.041,6.041,0,0,1,1.871.16,2.8,2.8,0,0,1,1.269.7,21.461,21.461,0,0,0,2.608,1.068,2.6,2.6,0,0,1,0-.3,3.693,3.693,0,0,1,.125-.741.213.213,0,1,1,.411.108,3.291,3.291,0,0,0-.112.657,1.947,1.947,0,0,0,.016.406,5.543,5.543,0,0,0,1.748.25,1.292,1.292,0,0,1,.744.134l.013.007a1.293,1.293,0,0,1,.687,1.261h0a1.268,1.268,0,0,1-.064.3Zm-4.557-3.662h0m-3.7,9.055-.01,0" transform="translate(-490.8 -237.216)"/><path class="j" d="M995.992,793.891c1.834,0,2.908-.1,3.457-.587a1.224,1.224,0,0,0-.33-2.091c-2.414-.872-10.9-3.935-16.992-6.811a7.119,7.119,0,0,0-8.948,1.235,28.61,28.61,0,0,0,.015,4.692q.2,2.917,2.231,3.562Z" transform="translate(-338.251 -333.527)"/><path class="j" d="M741.225,1132.428l-.86,7.617a11.662,11.662,0,0,1-13.457-.6s.4-3.215,1.191-9.646c4.506,1.751,8.31,3.045,13.126,2.625" transform="translate(-152.66 -594.71)"/><path class="m" d="M725.067,808.917l8.683-49.573c-.433-4.13.656-12.067,1.247-32.79q-3.955-13.645-1.158-22.645c12.183,8.814,23.328,14.64,31.514,16.836L755.7,763.673,742.031,812.1c-4.86,1.5-12.1.187-16.964-3.182" transform="translate(-151.272 -273.637)"/><path class="n" d="M756.622,708.99a25.583,25.583,0,0,1,1.006-5.08c12.183,8.814,23.328,14.64,31.514,16.836l-1.347,5.994a192.519,192.519,0,0,1-31.172-17.75" transform="translate(-175.061 -273.637)"/><path class="j" d="M833.135,1134a16.271,16.271,0,0,0,14.588.333s-.2,3.264-.6,9.792a17,17,0,0,1-13.722,0s-.089-3.375-.266-10.125" transform="translate(-232.742 -597.875)"/><path class="m" d="M753.958,1170.609h-37.07l1.724-13.65a3.178,3.178,0,0,1,2.874,1.82q3.293,1.971,8.429.143c.219-1.454,1.43-4.505,3.331-4.094a1.115,1.115,0,0,1,.788.646l1.628,2.587,11.4,6.13a6.206,6.206,0,0,1,6.9,6.418" transform="translate(-145.106 -613.548)"/><path class="o" d="M753.958,1209.649h-37.07l.389-3.073h36.008a6.2,6.2,0,0,1,.673,3.073" transform="translate(-145.106 -652.588)"/><path class="p" d="M861.393,1170.609H824.322l1.724-13.65a3.179,3.179,0,0,1,2.874,1.82q3.293,1.971,8.429.143c.219-1.454,1.43-4.505,3.331-4.094a1.115,1.115,0,0,1,.788.646l1.628,2.587,11.4,6.13a6.206,6.206,0,0,1,6.9,6.418" transform="translate(-226.098 -613.548)"/><path class="q" d="M861.393,1209.649H824.322l.388-3.073h36.009a6.215,6.215,0,0,1,.673,3.073" transform="translate(-226.098 -652.588)"/><path class="p" d="M752.4,791.457c4.5,4.252,14.021,3.677,17.027.2l3.424-40.815c.958-11.419,1.693-12.612-1.582-22.385l-9.29-28.76c-12.194-6.181-23.789-13.133-33.633-21.2q-1.308,6.578,2.731,15.539l19.71,47.242Z" transform="translate(-153.503 -254.476)"/><path class="m" d="M764.23,706.662l-2.25-6.964c-12.194-6.181-23.789-13.133-33.633-21.2a18.923,18.923,0,0,0-.1,6.379,196.58,196.58,0,0,0,35.98,21.789" transform="translate(-153.504 -254.476)"/><path class="q" d="M809.322,440.053a42.111,42.111,0,0,1,.679,9.135s.859,6.217,2.578,18.651q7.2,3.09,19.162,3.93a.947.947,0,0,1,1.065,1.288,18.6,18.6,0,0,0-.222,8.547.925.925,0,0,1-.855.7,90.886,90.886,0,0,1-25.534-.2,5.589,5.589,0,0,1-4.485-3.42,129.427,129.427,0,0,1-6.282-21.36,69.893,69.893,0,0,1-6.578,4.969l7.764,40.884a1.165,1.165,0,0,1-.893,1.4c-3.05-.772-6.4-.977-8.67,1.2a1.192,1.192,0,0,1-1.166-.363l-9.82-28.152q-3.465,7.9-6.417,23.559a2.531,2.531,0,0,1-2.4,1.465q-20.856-6.689-40.677-23.447a2.937,2.937,0,0,1-.468-3.2Q735.4,450.649,764.4,419q10.427-10.032,19.077-5.329l15.72,3.731q8.267.534,10.124,22.648" transform="translate(-151.845 -53.702)"/><path class="o" d="M968.653,754.113l.2,1.063a1.165,1.165,0,0,1-.893,1.4c-3.05-.772-6.4-.977-8.669,1.2a1.192,1.192,0,0,1-1.166-.363L954.3,746.443l4.509,8.767a12.548,12.548,0,0,1,9.844-1.1" transform="translate(-324.086 -305.702)"/><path class="o" d="M1005.656,444.969q2.9,3.736,4.352,12.364l-4.947,8.291a7.019,7.019,0,0,1-11.448-1.193q-1.168-15.2,1.252-19.161Z" transform="translate(-353.437 -78.426)"/><path class="o" d="M879.141,535.058q-2.917,6.742-5.468,19-10.931-58.27-10.93-58.27c-.455-2.6,1.15-6.155,3.661-7.211a19.217,19.217,0,0,0,.644,5.151l12.094,41.328Z" transform="translate(-255.004 -111.301)"/><path class="o" d="M1043.258,598.171q.919.081,1.868.147a.947.947,0,0,1,1.065,1.288,18.6,18.6,0,0,0-.222,8.547.926.926,0,0,1-.855.7,90.886,90.886,0,0,1-25.534-.2,5.589,5.589,0,0,1-4.485-3.42,131.085,131.085,0,0,1-6.22-21.019l4-4.176,4.2,22.214a5.266,5.266,0,0,0,3.8,3.664l21.382.268q-.783-5.636,1.013-8.012" transform="translate(-365.229 -180.251)"/><path class="l" d="M890.293,499.659l-.354-1.015q-.107.244-.213.5l-.018-.277-11.876-40.281a17.777,17.777,0,0,1-.447-9.9,16.354,16.354,0,0,1,5.271-8.074.283.283,0,1,1,.373.426,15.8,15.8,0,0,0-5.1,7.794,17.233,17.233,0,0,0,.442,9.594v0l11.836,40.143Zm12.431-15.986.133.7a.362.362,0,0,1-.013-.048Zm.513-.344q-.259.175-.513.344l-4.216-23.7v0l0-.006,0-.041A52.331,52.331,0,0,0,897,448.5a17.531,17.531,0,0,0-3.185-6.724.283.283,0,1,1,.435-.362,18.058,18.058,0,0,1,3.3,6.939,52.874,52.874,0,0,1,1.522,11.53l4.163,23.413Zm6.191-3.944c-.044-.229-.086-.457-.127-.682l5.909-6.051a.283.283,0,1,1,.406.4Zm16.947,9.267.078.568a6.626,6.626,0,0,0-4.811,5.023.284.284,0,0,1-.549-.142,7.2,7.2,0,0,1,5.282-5.449ZM903.365,449.84a.284.284,0,1,1,.546-.153,22.928,22.928,0,0,0,2.264,5.981,2.878,2.878,0,0,0,2.729,1.452h0a5.286,5.286,0,0,0,3.031-1l.014-.009a7.4,7.4,0,0,0,2.258-2.807.284.284,0,1,1,.51.249,7.972,7.972,0,0,1-2.433,3.015l-.018.014a5.837,5.837,0,0,1-3.348,1.105h0a3.386,3.386,0,0,1-3.215-1.7A23.307,23.307,0,0,1,903.365,449.84Z" transform="translate(-265.718 -75.083)"/><path class="j" d="M1007.716,395.957a13.867,13.867,0,1,1,23.913,12.852,66.974,66.974,0,0,1-14.364,9.973,3.661,3.661,0,0,1-4.841-1.243l-3.686-5.906-9.193,2.087a21.34,21.34,0,0,1-.889-14.122l9.059-3.641" transform="translate(-356.921 -33.985)"/><path class="k" d="M1011.056,468.136l-9.193,2.087a21.3,21.3,0,0,1-.934-2.693l6.034-6.168a2.043,2.043,0,0,1,3.019.711l1.074,6.064" transform="translate(-359.239 -90.488)"/><path class="l" d="M1031.2,386.651a6.686,6.686,0,0,1-3.251,1.5,13.082,13.082,0,0,1-3.393-.141,6.127,6.127,0,0,0-2.371.088,9.6,9.6,0,0,1-2.221.551c-.586-.036-.888-.5-.462-1.137a25.537,25.537,0,0,1,2.514-2.363,4.577,4.577,0,0,0,1.661-2.851,2.425,2.425,0,0,0-1.439-2.176,3.67,3.67,0,0,0-2.513.231,4.543,4.543,0,0,0-2.194,1.252,8.388,8.388,0,0,0-1.128,2.469c-.275.773-.524,1.288-1.022,1.182s-1.243-.836-2.451-1.279a27.736,27.736,0,0,0-3.908-.815c-1.029-.212-1.419-.475-1.6-.776s-.144-.643.451-1.169a38.425,38.425,0,0,0,3.1-2.559,47.4,47.4,0,0,0,3.935-4.619,12.058,12.058,0,0,0,1.874-2.949,8.488,8.488,0,0,1,1.013-2.513,9.378,9.378,0,0,1,3.544-2.576,27.467,27.467,0,0,1,5.382-1.812c1.5-.32,2.318-.266,2.967.267a11.163,11.163,0,0,1,1.448,1.928c.32.381.479.133.808-.3a2.291,2.291,0,0,1,1.643-1.1c.817-.044,1.954.489,3.429,1.466a19.57,19.57,0,0,1,4.849,4.458,23.071,23.071,0,0,1,3.624,7.4,19.447,19.447,0,0,1,.675,7.39,10.9,10.9,0,0,1-1.829,5.186,5.6,5.6,0,0,1-3.175,2.207,5.118,5.118,0,0,1-3.335-.326,7.708,7.708,0,0,1-2.811-2.17,5.367,5.367,0,0,1-1.212-3.121c-.088-1.253.142-2.78.124-3.4s-.284-.337-.737.275a12.641,12.641,0,0,1-1.99,2.31" transform="translate(-364.069 -17.379)"/><path class="j" d="M1377.356,1149.649q-1.144-4.5-5.761-3.553s-.2-1.953-.606-5.858a16.1,16.1,0,0,0,9.628-.2q.2,8.215.2,8.214l-3.463,1.4" transform="translate(-638.221 -602.425)"/><path class="k" d="M1371.283,1143.084l-.294-2.846a16.1,16.1,0,0,0,9.628-.2l.065,2.638a15.754,15.754,0,0,1-9.4.41" transform="translate(-638.221 -602.425)"/><path class="p" d="M1353.474,1173.6H1332.5q1.24-8.669,6.866-8.291l2.344-5.109c.967-2.41,7.277-1.835,7.2,1.968l2.053-1.088a1.66,1.66,0,0,1,1.592.67q.921,11.849.921,11.85" transform="translate(-609.201 -616.535)"/><path class="l" d="M1353.473,1211.936h-20.98a22.148,22.148,0,0,1,.453-2.326h20.346Z" transform="translate(-609.199 -654.875)"/><path class="l" d="M1360.394,1183.364l.3-.657a5.384,5.384,0,0,1,2.472,1.521,13.921,13.921,0,0,1,2.347,3.4.354.354,0,0,1-.63.325,13.232,13.232,0,0,0-2.219-3.225,4.6,4.6,0,0,0-2.271-1.364" transform="translate(-630.233 -634.594)"/><path class="m" d="M1392.012,1180.679h-8.4l3.833-11.432,2.052-1.088a1.659,1.659,0,0,1,1.592.67l.921,11.85" transform="translate(-647.738 -623.618)"/><path class="r" d="M1392.012,1211.936h-8.4l.78-2.326h7.437Z" transform="translate(-647.739 -654.875)"/><path class="j" d="M1438.894,1149.649q1.144-4.5,5.76-3.553s.2-1.953.606-5.858a16.1,16.1,0,0,1-9.627-.2q-.2,8.215-.2,8.214l3.463,1.4" transform="translate(-686.802 -602.425)"/><path class="k" d="M1445.385,1143.084l.294-2.846a16.1,16.1,0,0,1-9.627-.2l-.066,2.638a15.755,15.755,0,0,0,9.4.41" transform="translate(-687.221 -602.425)"/><path class="p" d="M1428.626,1173.6h20.979q-1.24-8.669-6.866-8.291l-2.345-5.109c-.967-2.41-7.276-1.835-7.2,1.968l-2.052-1.088a1.659,1.659,0,0,0-1.592.67q-.922,11.849-.921,11.85" transform="translate(-681.672 -616.535)"/><path class="l" d="M1428.626,1211.936h20.979a22.081,22.081,0,0,0-.453-2.326h-20.346Z" transform="translate(-681.672 -654.875)"/><path class="l" d="M1470.162,1183.364l-.3-.657a5.382,5.382,0,0,0-2.472,1.521,13.928,13.928,0,0,0-2.347,3.4.354.354,0,0,0,.63.325,13.232,13.232,0,0,1,2.219-3.225,4.6,4.6,0,0,1,2.271-1.364" transform="translate(-709.096 -634.594)"/><path class="m" d="M1428.626,1180.679h8.4l-3.833-11.432-2.052-1.088a1.659,1.659,0,0,0-1.592.67q-.921,11.849-.921,11.85" transform="translate(-681.672 -623.618)"/><path class="r" d="M1428.626,1211.936h8.4l-.78-2.326h-7.437Z" transform="translate(-681.672 -654.875)"/><path class="p" d="M1365.829,816.709c-16.011,6.135-52.087,9.431-68.21-1.156,0,0,6.491-36.085,11.7-99.084,13.189,3.047,33.653,5.331,41.4,1.669,7.277,63.781,15.111,98.571,15.111,98.571" transform="translate(-582.908 -283.105)"/><path class="m" d="M1313.843,822.5q-1.372-.525-2.641-1.132,5.864-24.114,9.539-49.24,3.621-24.747,5.112-50.424,1.382.251,2.81.483-1.5,25.668-5.114,50.352-3.727,25.477-9.706,49.961m12.016,2.962c-.952-.137-1.894-.289-2.818-.458,4.221-14.3,5.65-39.4,7.019-55.231,1.4-16.156,2.337-32.237,3.023-46.876q1.414.161,2.822.293c-.683,14.524-1.622,30.385-2.993,46.333C1331.527,785.608,1330.113,810.916,1325.858,825.466Zm14.986.9q-1.425.016-2.845-.005c.745-7.765,1.272-16.513,1.641-26.236.8-21.023.862-46.55.807-76.493q1.429.113,2.831.191c.054,29.912-.01,55.416-.807,76.4C1342.105,809.891,1341.583,818.608,1340.845,826.37Zm16.292-1.23q-1.391.193-2.813.36-1.946-15.5-3.926-35.585-2.809-28.51-5.669-66.019c.968.04,1.921.065,2.852.073q2.856,37.454,5.636,65.669Q1355.191,809.651,1357.137,825.14Zm13-2.582q-1.331.36-2.754.693-2.938-15.388-5.927-36.352-3.837-26.923-7.773-63.151c.99-.091,1.93-.212,2.811-.364q3.928,36.164,7.771,63.116Q1367.233,807.306,1370.138,822.558Z" transform="translate(-593.148 -287.055)"/><path class="m" d="M1342.853,723.187q.287-3.307.569-6.718c13.19,3.047,33.652,5.331,41.4,1.669q.334,2.936.671,5.79a59.466,59.466,0,0,1-42.637-.742" transform="translate(-617.009 -283.105)"/><path class="s" d="M1397.064,723.748l.046,0,.459-.045.046-.005.022,0,.023,0,.045-.005.045-.005.36-.041.045-.006.044-.005h.01l.034,0,.045-.006.352-.045.044-.006.044-.006.077-.01h.01l.043-.006.043-.007.3-.044.042-.006.043-.006.029,0,.013,0,.042-.007.042-.006.042-.007.334-.054.042-.007.017,0,.024,0q.326,3,.65,5.929-1.38.382-2.774.7-.343-3.1-.687-6.261m-8.956.148.046,0h.045l.045,0h.045l.045,0h.045l.045,0h.045l.045,0h.045l.045,0h.045l.045,0h.044l.045,0h.045l.046,0h.044l.045,0,.09,0,.045,0h.447l.089,0h.267l.172,0h.884q.274,3.595.547,7.1-1.411.164-2.827.259Q1388.4,727.66,1388.109,723.9Zm-4.281-.261.044,0,.045,0,.045,0,.044,0,.045,0,.044,0,.045,0,.223.017.045,0,.044,0,.044,0,.045,0,.044,0,.044,0,.044,0,.044,0,.045,0,.044,0,.266.019.044,0,.044,0,.044,0,.044,0,.044,0,.044,0,.044,0,.044,0,.044,0,.044,0,.044,0,.265.017.045,0,.044,0,.044,0,.044,0,.044,0,.044,0,.044,0,.044,0,.044,0,.263.015.044,0,.044,0,.043,0,.044,0,.011,7.608q-1.415.048-2.831.029Q1383.836,727.6,1383.828,723.635Zm-4.549-.442h0q-.185,3.935-.4,8-1.411-.138-2.817-.343.209-4.033.391-7.946Q1377.873,723.062,1379.28,723.193Zm-10.047-1.485.043.008.043.008.043.007.044.008.043.008.261.047.043.007.044.008.043.008.044.007.043.008.044.008.043.008.044.008.043.008.044.008.043.008.132.023.044.008.043.008.043.007.044.007.044.008.044.008.044.007.044.007.043.008.044.008.044.007.044.007.044.008.088.015.016,0,.028,0,.044.007.044.008.044.007.044.007.045.007.044.008.045.008.044.007.044.008.044.007.044.007.045.007.044.007.045.007.044.007.087.015h0l.045.007.045.007.044.007.045.008.045.007.044.007q-.23,3.918-.508,7.813-1.4-.317-2.791-.7Q1369.01,725.514,1369.232,721.708Z" transform="translate(-636.528 -287.055)"/><path class="t" d="M1577.816,840.244h3.929a.613.613,0,0,1,.612.611v92.012a.613.613,0,0,1-.612.611h-3.929a.613.613,0,0,1-.611-.611V840.855a.612.612,0,0,1,.611-.611" transform="translate(-793.683 -376.417)"/><path class="t" d="M919.6,840.244h3.929a.613.613,0,0,1,.611.611v92.012a.613.613,0,0,1-.611.611H919.6a.613.613,0,0,1-.611-.611V840.855a.612.612,0,0,1,.611-.611" transform="translate(-297.469 -376.417)"/><path class="i" d="M1122.347,853.394h-32.293l-7.94,5.059q-2.394.621-2.025-2.558l4.582-11.937h43.485l3.73,12.9a1.464,1.464,0,0,1-.959,1.705Z" transform="translate(-418.879 -379.217)"/><path class="b" d="M898.617,826.175h174.844a1.553,1.553,0,0,1,1.549,1.549v2.449a1.553,1.553,0,0,1-1.549,1.549H898.617a1.553,1.553,0,0,1-1.549-1.549v-2.449a1.553,1.553,0,0,1,1.549-1.549" transform="translate(-280.94 -365.81)"/><path class="r" d="M1198.464,575.5c-.321.39-.15.662.053.957s.438.616.9,1.167a10.607,10.607,0,0,0,1.747,1.755,1.358,1.358,0,0,0,1.528.236c.4-.249.675-.808,1.057-1.932s.871-2.812,1.576-4.792,1.63-4.254,2.287-6.428a20.339,20.339,0,0,0,1.014-5.16c-.035-.915-.5-.672-.918,0a25.98,25.98,0,0,0-1.377,3.187,33.1,33.1,0,0,1-2.38,4.814,24.77,24.77,0,0,1-3.311,4.259c-1.035,1.039-1.85,1.548-2.172,1.939" transform="translate(-508.023 -165.676)"/><path class="j" d="M1150.564,540.2c5.756-4.189,7.73-6.8,10.686-14.7a11.041,11.041,0,1,0-21.384-1.391q-.106,7.461-.106,7.461-2.986,7.141-2.985,7.141a12.391,12.391,0,0,0,14.016,2.611l-.226-1.119" transform="translate(-461.651 -128.28)"/><path class="k" d="M1151.345,615.443a12.387,12.387,0,0,0,9.081-.482l-.227-1.119a4.888,4.888,0,0,1-5.794-.972l-2.9-4a1.548,1.548,0,0,0-1.945.853Z" transform="translate(-471.286 -201.923)"/><path class="l" d="M1129.234,518.059c.641.364,1.565,1,2.773,1.709a39.817,39.817,0,0,0,4.172,2.12,26.4,26.4,0,0,0,4.227,1.445,13.147,13.147,0,0,0,3.02.417c.586-.018.622-.177.826-.8a26.291,26.291,0,0,0,.826-2.9,9.763,9.763,0,0,0,0-4.263,14.238,14.238,0,0,0-2.549-5.658,9.909,9.909,0,0,0-4.9-3.2,13.217,13.217,0,0,0-5.737-.471,13.414,13.414,0,0,0-5.24,1.9,17.482,17.482,0,0,0-4.265,4.2c-1.662,2.072-3.869,5.027-5.353,7.286a30.913,30.913,0,0,0-2.72,4.924,6.626,6.626,0,0,0-.674,2.38,4.325,4.325,0,0,0,.4,1.963,5.714,5.714,0,0,0,2.043,2.353,22.315,22.315,0,0,0,4.592,2.576c1.288.479,1.821.283,1.926-.467a16.966,16.966,0,0,1,.447-4.613,62.429,62.429,0,0,1,3.3-8.486c.972-2.118,1.256-2.545,1.576-2.713s.675-.08,1.315.283" transform="translate(-444.205 -124.695)"/><path class="u" d="M1191.388,821.256h21.085a.472.472,0,0,0,.47-.47v-.721a.471.471,0,0,0-.47-.47h-21.085a.471.471,0,0,0-.47.47v.721a.471.471,0,0,0,.47.47" transform="translate(-502.468 -360.85)"/><path class="v" d="M1241.537,821.256h8.764a.472.472,0,0,0,.459-.471v-.72a.472.472,0,0,0-.459-.471h-8.764a.472.472,0,0,0-.458.471v.72a.472.472,0,0,0,.458.471" transform="translate(-540.284 -360.85)"/><path class="b" d="M1319.551,505.976a.758.758,0,0,0,.786.733h22.692a.5.5,0,0,1,.4.755s-.325,2.946-.976,8.837a39.285,39.285,0,0,0,17.807-1.687,1.072,1.072,0,0,0,.8-1.288s.186,1.332-.555-4c.535-.221.716-.844.533-2.351,0,0-1.089-8.544-1.976-14.791a13.878,13.878,0,0,0,4.4,1.01,6.237,6.237,0,0,0,4.891-2.449,5.28,5.28,0,0,0,.832-5.222l-9.635-30.332a9.358,9.358,0,0,0-4.84-5.285l-14.877-3.02-1.687-1.332c-1.8,6.012-6.39,8.733-10.791,6.572a3.981,3.981,0,0,1-5.04.022q-3.467,2.363-9.571,6.284-2.449,2.279-2.355,7.771-.22,26.511-.221,26.511-.238,6.792,5.328,7.727,3.285.019,4.4-2.132Z" transform="translate(-592.361 -78.869)"/><path class="c" d="M1367.2,446.889l-1.687-1.332c-1.8,6.012-6.39,8.733-10.791,6.572a3.981,3.981,0,0,1-5.041.022q-1.4.951-3.221,2.157c2.563,5.922,8.367,7.091,14.034,4.911,4.192-1.614,6.676-5.526,6.7-12.33" transform="translate(-619.731 -78.869)"/><path class="c" d="M1475.106,643.714q1.3-.34,2.581-.77a1.072,1.072,0,0,0,.8-1.288s.186,1.332-.555-4c.535-.221.716-.844.533-2.351,0,0-1.051-8.248-1.93-14.461a65.784,65.784,0,0,1-6.479-3.773,1.294,1.294,0,0,1-.654-1.159,1.412,1.412,0,0,0-1.356.094l5.84,8.116,1.865,10.658a2.361,2.361,0,0,1-.266,1.732,29.43,29.43,0,0,1-7.328.977,2.508,2.508,0,0,0-2.235,2.006,45.636,45.636,0,0,0,8.672-.963,13.054,13.054,0,0,1,.512,5.179" transform="translate(-709.789 -207.201)"/><path class="c" d="M1317.318,530.388a1.488,1.488,0,0,1,1.334-1.356l4.819,23.961a4.444,4.444,0,0,1-2.621-2.834.5.5,0,0,0-.688.033,5.991,5.991,0,0,1-2.576,1.844,3.048,3.048,0,0,0-1.556,1.177q1.287-22.825,1.287-22.826" transform="translate(-596.789 -141.8)"/><path class="c" d="M1492.71,547.247a4.5,4.5,0,0,1,3.2-.475l-8.858-13.862a1.132,1.132,0,0,0-1.732.666l5.133,13.964a9.36,9.36,0,0,0,2.261-.293" transform="translate(-724.411 -144.577)"/><path class="u" d="M1266.32,689.151h40.816a1.152,1.152,0,0,1,1.164,1.289l-3.02,31.147a1.455,1.455,0,0,1-1.414,1.289h-40.816a1.152,1.152,0,0,1-1.165-1.289l3.02-31.147a1.456,1.456,0,0,1,1.414-1.289" transform="translate(-555.966 -262.51)"/><path class="p" d="M1063.931,949.619h54.378a1.846,1.846,0,0,1,1.842,1.841v4.446a1.847,1.847,0,0,1-1.842,1.841h-54.378a1.846,1.846,0,0,1-1.841-1.841V951.46a1.846,1.846,0,0,1,1.841-1.841" transform="translate(-405.347 -458.873)"/><path class="m" d="M1063.931,949.619h54.378a1.846,1.846,0,0,1,1.841,1.841v.781H1062.09v-.781a1.846,1.846,0,0,1,1.841-1.841" transform="translate(-405.347 -458.873)"/><path class="j" d="M1143.723,1151.97l.479-4.576a17.936,17.936,0,0,1-9.309-1.07l.162,6.719.327.149q4.038-4.995,8.342-1.222" transform="translate(-460.231 -607.165)"/><rect class="w" width="5.013" height="58.487" transform="translate(683.266 496.189)"/><rect class="x" width="5.013" height="4.597" transform="translate(683.266 550.079)"/><path class="q" d="M1108.637,1203.431h32.726a1.612,1.612,0,0,0,1.607-1.607v-1.89a1.611,1.611,0,0,0-1.607-1.607h-32.726a1.611,1.611,0,0,0-1.607,1.607v1.89a1.611,1.611,0,0,0,1.607,1.607" transform="translate(-439.227 -646.37)"/><path class="k" d="M1143.994,1149.383l.208-1.989a17.936,17.936,0,0,1-9.309-1.07l.076,3.157a18.421,18.421,0,0,0,9.026-.1" transform="translate(-460.231 -607.165)"/><path class="h" d="M1136.093,1175l-13.855-.068v-2.36l1.722-9.59a1.177,1.177,0,0,1,1.729.461l.029-.049.019-.032.01-.016.03-.048.01-.016.02-.032.03-.047h0l.031-.047.02-.031.011-.016.031-.046.01-.014.022-.032.031-.045h0l.051-.071,0,0,.012-.016.034-.045.01-.014.024-.031.033-.043h0l.035-.043.022-.028.013-.015.036-.043.01-.012.026-.03.035-.04v0l.037-.042.023-.026.014-.016.038-.041.011-.011.027-.029.036-.038,0,0,.039-.039.024-.024.015-.015.039-.039.011-.011.029-.028.037-.036,0,0,.04-.037.025-.022h0l.057-.051.011-.01.031-.026.038-.033,0,0,.042-.035.025-.021.018-.014.042-.035.012-.008.032-.026.087-.067.025-.02.018-.013.044-.032.011-.008.033-.023.041-.029,0,0,.045-.031.027-.018.019-.013.046-.03.046-.03.042-.027,0,0,.047-.029.047-.028.047-.028.038-.022.01-.005.043-.024.005,0,.048-.027.027-.015.021-.011.049-.026.011-.006.038-.019.043-.022.006,0,.049-.024.027-.013.022-.011.05-.023.01,0,.039-.017a5.622,5.622,0,0,1,7.173,2.339Z" transform="translate(-450.692 -617.934)"/><path class="l" d="M1148.071,1181.437l.042.742a7.222,7.222,0,0,0-8.947-.362.277.277,0,1,1-.325-.448,7.776,7.776,0,0,1,9.23.069" transform="translate(-463.122 -632.465)"/><path class="l" d="M1136.093,1211l-13.855-.068v-2.36l.037-.205h13.671Z" transform="translate(-450.692 -653.935)"/><path class="j" d="M1190.779,1151.97l-.479-4.576a17.936,17.936,0,0,0,9.31-1.07l-.161,6.719-.327.149q-4.039-4.995-8.342-1.222" transform="translate(-502.003 -607.165)"/><path class="k" d="M1190.508,1149.383l-.208-1.989a17.936,17.936,0,0,0,9.31-1.07l-.064,2.678a18.481,18.481,0,0,1-9.037.38" transform="translate(-502.003 -607.165)"/><path class="h" d="M1184.485,1175l13.855-.068v-2.36l-1.722-9.59a1.177,1.177,0,0,0-1.729.461l-.029-.049-.019-.032-.01-.016-.029-.048-.01-.016-.02-.032-.03-.047h0l-.031-.047-.02-.031-.011-.016-.031-.046-.01-.014-.022-.032-.031-.045h0l-.051-.071,0,0-.012-.016-.033-.045-.01-.014-.024-.031-.034-.043h0l-.035-.043-.022-.028-.013-.015-.035-.043-.011-.012-.025-.03-.035-.04,0,0-.037-.042-.023-.026-.014-.016-.037-.041-.011-.011-.027-.029-.037-.038,0,0-.039-.039-.024-.024-.015-.015-.039-.039-.011-.011-.028-.028-.038-.036,0,0-.04-.037-.025-.022h0l-.056-.051-.011-.01-.03-.026-.039-.033,0,0-.042-.035-.025-.021-.017-.014-.043-.035-.011-.008-.032-.026-.087-.067-.025-.02-.019-.013-.045-.032-.011-.008-.033-.023-.041-.029,0,0-.046-.031-.026-.018-.019-.013-.046-.03-.046-.03-.042-.027,0,0-.047-.029-.047-.028-.048-.028-.038-.022-.01-.005-.042-.024-.005,0-.048-.027-.027-.015-.021-.011-.048-.026-.011-.006-.038-.019-.043-.022-.005,0-.05-.024-.027-.013-.022-.011-.05-.023-.011,0-.039-.017a5.621,5.621,0,0,0-7.173,2.339Z" transform="translate(-497.619 -617.934)"/><path class="l" d="M1186.194,1181.437l-.042.742a7.223,7.223,0,0,1,8.948-.362.277.277,0,1,0,.325-.448,7.777,7.777,0,0,0-9.231.069" transform="translate(-498.876 -632.465)"/><path class="l" d="M1184.485,1211l13.855-.068v-2.36l-.037-.205h-13.672Z" transform="translate(-497.618 -653.935)"/><path class="y" d="M1125.314,877.848c-.89,15.372-2.138,35.76-4.307,49.7-4.1.737-8.5,1.068-12.307-.619l-.451-42.257s-.388,19.112-.6,42.2c-3.638,2.422-8.181,2.432-12.4,1.3-1.62-14.364-2.731-35.912-3.881-50.321a10.008,10.008,0,0,1-5.008,0,12.5,12.5,0,0,1-.915-11.51c5.969-6.75,8.953-9.006,8.953-9.006a9.01,9.01,0,0,1,13.962.853,10.718,10.718,0,0,1,14.175-1.7c7.816,7.389,11.724,9.965,11.724,9.965a12.653,12.653,0,0,1-1.977,11.4,10.746,10.746,0,0,1-6.964,0" transform="translate(-422.206 -387.102)"/><path class="t" d="M1260.489,908.827a12.848,12.848,0,0,1-2.422,5.8,10.776,10.776,0,0,1-6.759.07,34.558,34.558,0,0,0,.122-10.938,1.2,1.2,0,0,1,1.192-.542Z" transform="translate(-547.995 -423.882)"/><path class="t" d="M1091.189,915.358a9.9,9.9,0,0,1-4.833-.039,12.362,12.362,0,0,1-1.9-6.522l5.562-4.668a.787.787,0,0,1,.844.49,32.876,32.876,0,0,0,.361,10.7Z" transform="translate(-422.206 -424.572)"/><path class="l" d="M1180.491,895.535l0-.213v.213a.212.212,0,0,1-.211-.213l.1-26.771q.11.141.215.288c.068-.078.138-.154.209-.23l-.1,26.715a.211.211,0,0,1-.21.212" transform="translate(-494.446 -397.756)"/><path class="l" d="M1144.027,916.447q-.21-.064-.411-.135a57.038,57.038,0,0,0,.514-6.181,18.528,18.528,0,0,0-.347-4.431.213.213,0,0,1,.415-.1,18.957,18.957,0,0,1,.357,4.534,57.542,57.542,0,0,1-.528,6.309m-34.361-.135c-.149.034-.3.067-.451.1a.261.261,0,0,0,.017-.111,46.976,46.976,0,0,1-.477-5.176,37.862,37.862,0,0,1,.171-5.319.212.212,0,1,1,.423.043,37.325,37.325,0,0,0-.169,5.26A47.655,47.655,0,0,0,1109.667,916.312Z" transform="translate(-440.508 -425.566)"/><path class="k" d="M1415.594,603.636a5.281,5.281,0,0,0-.73,1.418.856.856,0,0,1-1.119-1.168l.387-.974.663-1.058,3.331-.683-2.531,2.464" transform="translate(-670.383 -196.185)"/><path class="j" d="M1422.414,595.194a8.787,8.787,0,0,0,.355-6.063l-10.2-.745a3.087,3.087,0,0,0-2.286.331l-3.376,1.368a4.115,4.115,0,0,0-1.765,1.4l-1,1.5a2.115,2.115,0,0,0-.467,1.433q-.083,1.116-.083,1.115a.286.286,0,0,0,.4.283,2.132,2.132,0,0,0,1.748-1.882l1.614-1.449,2.715-.649-2.182,1.815a2.224,2.224,0,0,0-.616,1.5q.084,1.949.083,1.949a1.682,1.682,0,0,0,1.649.749l.5-.217a1.3,1.3,0,0,0,1.466.633,1.125,1.125,0,0,0,1.515.4l3.28-2a7.481,7.481,0,0,0,4.729-1.166,7.977,7.977,0,0,1,1.919-.3" transform="translate(-662.801 -186.48)"/><path class="k" d="M1426.87,612.1a1.291,1.291,0,0,0,.435-.038l.1-.706a2.518,2.518,0,0,1,.633-1.052l2.23-1.807a.212.212,0,1,0-.268-.33l-2.235,1.811-.019.016a2.923,2.923,0,0,0-.753,1.251.181.181,0,0,0-.008.037Zm-1.439-.494.408-.177-.08-.749c-.017-.16-.078-.5-.072-.641a.992.992,0,0,1,.168-.511,3.213,3.213,0,0,1,.382-.393l2.181-2.166a.213.213,0,1,0-.3-.3l-2.313,2.3a1.428,1.428,0,0,0-.473.666l0,.016a1.431,1.431,0,0,0-.025.8Zm2.331-1.625,0,0" transform="translate(-679.135 -200.28)"/><path class="l" d="M1354.139,509.541a.285.285,0,0,1,.3-.156m-38.5-23.327a.284.284,0,0,1,.558-.109l3.375,17.23a.284.284,0,1,1-.557.109Zm6.367,34.336-.078,1.77.014-.03a23.019,23.019,0,0,0,1.161-3.451c.321-1.253.9-4.246,1.1-5.723a.812.812,0,0,0,.022-.29.789.789,0,0,0-.1-.3.809.809,0,0,0-.2-.242l-.009-.007a.8.8,0,0,0-.271-.135.281.281,0,0,0-.148,0,3.745,3.745,0,0,1-4.562-2.621.286.286,0,0,0-.047-.095l0-.007a.817.817,0,0,0-.237-.212h0a.81.81,0,0,0-.646-.074l-.021.008a.817.817,0,0,0-.269.153.269.269,0,0,0-.043.047,4.489,4.489,0,0,1-.974.947l-.012.009a6.091,6.091,0,0,1-1.319.707,3.152,3.152,0,0,0-2.3,2.875.284.284,0,1,0,.566.029,2.581,2.581,0,0,1,1.9-2.36l.03-.01a6.709,6.709,0,0,0,1.454-.781l.015-.01a5.068,5.068,0,0,0,1.073-1.039.264.264,0,0,1,.055-.03l.014,0a.248.248,0,0,1,.1-.008.239.239,0,0,1,.093.031h0a.257.257,0,0,1,.046.035,4.314,4.314,0,0,0,5.143,2.982l.017.011.009.007a.232.232,0,0,1,.059.069.237.237,0,0,1,.027.087.25.25,0,0,1-.008.093h0l-.009.043c-.194,1.462-.774,4.44-1.091,5.677Q1322.611,519.515,1322.312,520.395Zm5.4-45.3a3.557,3.557,0,0,1-.585.029,3.9,3.9,0,0,0,.958,1.639,5.6,5.6,0,0,0,2.854,1.483,9.557,9.557,0,0,0,3.729.02,11.171,11.171,0,0,0,5.73-2.928.284.284,0,0,0-.4-.406,10.6,10.6,0,0,1-5.437,2.777,8.984,8.984,0,0,1-3.506-.018,5.039,5.039,0,0,1-2.568-1.323A3.348,3.348,0,0,1,1327.715,475.09Zm35.268,56.744-.059-.424q-3.5.824-6.445,1.231a38.268,38.268,0,0,1-5.352.395.212.212,0,1,0,0,.425,38.7,38.7,0,0,0,5.41-.4Q1359.5,532.655,1362.983,531.834Zm-1.41-16.911-.093-.655a48.713,48.713,0,0,1-6.486-3.863l-.009-.006-.006,0a.674.674,0,0,1-.256-.29h0a.672.672,0,0,1-.055-.362,9.057,9.057,0,0,0,.38-6.125.346.346,0,0,1,.044-.064l.005-.006a.358.358,0,0,1,.258-.115.368.368,0,0,1,.146.03.266.266,0,0,0,.056.018h0l.011,0a33.215,33.215,0,0,0,4.7.671c.191.011.375.016.553.019h.021a6.608,6.608,0,0,0,2.381-.305.336.336,0,0,0,.042-.02,4.355,4.355,0,0,1,4.7.422.283.283,0,1,0,.349-.446,4.915,4.915,0,0,0-5.305-.482,5.756,5.756,0,0,1-1.978.267l-5.3-14.27a.283.283,0,0,0-.531.2l5.226,14.058-.124-.006a32.606,32.606,0,0,1-4.6-.657.941.941,0,0,0-.348-.064.917.917,0,0,0-.675.3l-.011.013a.919.919,0,0,0-.187.338h0a.278.278,0,0,0,0,.163,8.5,8.5,0,0,1-.34,5.856.269.269,0,0,0-.024.076,1.245,1.245,0,0,0,.092.722h0a1.237,1.237,0,0,0,.48.542A48.311,48.311,0,0,0,1361.573,514.923Z" transform="translate(-594.781 -100.951)"/><path class="j" d="M1342.1,588.913a2.6,2.6,0,0,1-1.481,2.2,4.16,4.16,0,0,1-5.178-3.076l.021-1.034a4.48,4.48,0,0,1-.023-2.553,1.594,1.594,0,0,1,1.266-2.421,1.653,1.653,0,0,1,1.133-2.132l1.821-.244a4.008,4.008,0,0,1,1.777.111l3.908.822a.743.743,0,0,1,.067,1.377l-2.864.044a15.037,15.037,0,0,1,2.7.462,1.043,1.043,0,0,1,.651,1,.885.885,0,0,1-.7.853l-2.7.224,2.51.367a1.18,1.18,0,0,1,0,1.885l-1,.029a1.391,1.391,0,0,1,.184,1.592Z" transform="translate(-611.244 -179.922)"/><path class="k" d="M1350.191,593.846a1.4,1.4,0,0,1,.249.4l-1.976.105-.283.012c-.246.024-.523.029-.83.037s-.642.007-1.007,0l-2.724-.158a.212.212,0,0,1,0-.424l2.729.158h.013q.535.013.983,0c.3-.007.566-.023.806-.046h.011Zm-1.513-2.281h.022l.455.067a4.914,4.914,0,0,1-1.952.229h0a6.3,6.3,0,0,0-1.287.044.2.2,0,0,1-.051,0l-1.96.169a.212.212,0,0,1,0-.425l1.952-.168a6.8,6.8,0,0,1,1.371-.049h0C1347.7,591.46,1348.212,591.508,1348.678,591.566Zm-2.462-2.207c-.523.029-1.389.285-2.008.382a.212.212,0,0,1-.065-.419c.635-.1,1.516-.357,2.05-.386a10.116,10.116,0,0,1,1.458.014h.009l1.066.079.169.03C1347.7,589.185,1347.38,589.205,1346.217,589.359Zm2.064,6.577a3.632,3.632,0,0,1-.078.441c-.357.049-.763.1-1.019.135l-.882.813a.212.212,0,1,1-.288-.312l.457-.421q-.772.081-1.607.145a.213.213,0,1,1-.031-.424q.958-.074,1.816-.167C1347.077,596.1,1347.882,595.989,1348.281,595.935Z" transform="translate(-617.426 -186.944)"/><path class="j" d="M1339.9,374.706a11.169,11.169,0,1,0-20.441,5.322,43.916,43.916,0,0,0,8.023,9.784q2.641,2.242,5.143.586l.08.8a7.841,7.841,0,0,0,11.139-7.38l-3.3-3.784-.639-5.329" transform="translate(-597.966 -16.39)"/><path class="k" d="M1378.664,454.764l.08.8a7.839,7.839,0,0,0,6.355.111,20.036,20.036,0,0,0,.784-6.723,1.273,1.273,0,0,0-2.182-.447,20.673,20.673,0,0,1-5.037,6.26" transform="translate(-644.007 -80.754)"/><path class="l" d="M1314.743,356.47a5.471,5.471,0,0,0,1.039.915,7.9,7.9,0,0,0,2.618.718,15.757,15.757,0,0,1,4.121.908,19.48,19.48,0,0,1,6.068,3.733,23.931,23.931,0,0,1,3.9,5.159c.773,1.272,1.035,1.661,1.354,1.668s.7-.367,1.391-1.16,1.705-2.006,2.353-2.883a6.1,6.1,0,0,0,1.12-2.08,4.674,4.674,0,0,0,.035-2.456,16.515,16.515,0,0,0-2.49-4.881,105.131,105.131,0,0,0-6.543-9.031,16.856,16.856,0,0,0-4.8-4.271,17.4,17.4,0,0,0-3.635-1.612c-.877-.244-1.246-.155-1.482.044s-.34.511-.477.481-.307-.4-.635-.609-.813-.256-1.753,0a14.155,14.155,0,0,0-3.551,1.584,10.739,10.739,0,0,0-3.273,3.255,28.419,28.419,0,0,0-2.518,4.836,8.257,8.257,0,0,0-.586,2.131,1.388,1.388,0,0,1-.32.658,2.041,2.041,0,0,0-.364,1.337,17.9,17.9,0,0,0,1.754,7.385,39.63,39.63,0,0,0,2.873,5.116,46.564,46.564,0,0,0,3.325,4.29c.982,1.15,1.729,1.994,2.239,2.482s.786.622,1.031.5a1.57,1.57,0,0,0,.576-.867,1.352,1.352,0,0,0-.02-1.051,4.61,4.61,0,0,0-.887-1.091c-.371-.38-.761-.78-1.315-1.407s-1.27-1.483-2.095-2.585a31.921,31.921,0,0,1-2.445-3.721,14.665,14.665,0,0,1-1.357-3.418,3.615,3.615,0,0,1-.011-2.269,2.065,2.065,0,0,1,1.381-1.172,8.328,8.328,0,0,1,1.8-.053,1.681,1.681,0,0,0,1.021-.364c.222-.173.364-.351.56-.218" transform="translate(-589.462 0)"/><path class="t" d="M1138.539,1138.038q.16-2.838.16-2.838a.492.492,0,0,0-.35-.293,35.164,35.164,0,0,1-12.8,1.27.47.47,0,0,0-.412.516l.239,2.9a.6.6,0,0,0,.346.48,14.96,14.96,0,0,0,12.577-1.4.906.906,0,0,0,.24-.64" transform="translate(-452.875 -598.559)"/><path class="t" d="M1181.623,1138.086c-.106-1.892-.226-3.021-.226-3.021a.492.492,0,0,1,.35-.293,35.012,35.012,0,0,0,12.789,1.092.471.471,0,0,1,.413.516c-.16,1.936-.208,2.523-.208,2.523a.6.6,0,0,1-.346.479c-4.193,1.417-8.035,1.1-12.53-.657a.9.9,0,0,1-.24-.64" transform="translate(-495.291 -598.456)"/><path class="p" d="M1350.394,747.875a2.057,2.057,0,0,1,2.083,2.409,2.845,2.845,0,0,1-2.734,2.409,2.058,2.058,0,0,1-2.083-2.409,2.845,2.845,0,0,1,2.734-2.409" transform="translate(-620.617 -306.781)"/></g></svg>