<svg xmlns="http://www.w3.org/2000/svg" width="95.701" height="11.277" viewBox="0 0 95.701 11.277"><defs><style>.a{fill:#fff;}</style></defs><g transform="translate(4.003 -1)"><g transform="translate(-4.003 1)"><path class="a" d="M1.79,11.061a6.457,6.457,0,0,1-1.635-.5v-2.6a8.581,8.581,0,0,0,1.691.573,7.058,7.058,0,0,0,1.705.224,3.522,3.522,0,0,0,1.3-.168.6.6,0,0,0,.405-.629.671.671,0,0,0-.2-.489A1.733,1.733,0,0,0,4.5,7.134L3.328,6.743a2.012,2.012,0,0,1-.405-.126,6.569,6.569,0,0,1-1.733-.769A2.488,2.488,0,0,1,.281,4.842,3.62,3.62,0,0,1,0,3.347,2.8,2.8,0,0,1,1.147.929,5.59,5.59,0,0,1,4.5.1a11.964,11.964,0,0,1,1.8.14A11.894,11.894,0,0,1,7.87.579V3.207a7.785,7.785,0,0,0-2.8-.587,5.269,5.269,0,0,0-1.4.126.587.587,0,0,0-.447.587.587.587,0,0,0,.2.461,1.467,1.467,0,0,0,.559.293c.252.084.671.2,1.286.349a6.331,6.331,0,0,1,1.985.853,2.8,2.8,0,0,1,.964,1.132,3.885,3.885,0,0,1,.266,1.537,2.8,2.8,0,0,1-1.16,2.39,5.674,5.674,0,0,1-3.438.88,12.327,12.327,0,0,1-2.1-.168Z" transform="translate(0.003 0.036)"/><path class="a" d="M6.9.22h3.159v3.8l3.27-3.8h3.578l-3.8,4.416,4.081,6.373H13.832l-2.6-4.36-1.1,1.244v3.117H6.9Z" transform="translate(2.748 0.087)"/><path class="a" d="M24.507,0h3.228L23.822,11.1H20.58Z" transform="translate(8.187)"/><path class="a" d="M30.227,0H33.47L29.542,11.1H26.3Z" transform="translate(10.461)"/><path class="a" d="M38.2,10.7V9.089a8.679,8.679,0,0,0,3.2.657,4.528,4.528,0,0,0,1.971-.321,1.216,1.216,0,0,0,.615-1.188,1.4,1.4,0,0,0-.266-.88,1.929,1.929,0,0,0-.853-.559,17.736,17.736,0,0,0-1.761-.545A5.451,5.451,0,0,1,38.66,5.106,2.6,2.6,0,0,1,38,3.135,2.641,2.641,0,0,1,39.051.9,5.087,5.087,0,0,1,42.1.1a11.307,11.307,0,0,1,1.719.126,7.323,7.323,0,0,1,1.4.307V2.143a7.924,7.924,0,0,0-2.8-.489,4.277,4.277,0,0,0-1.915.335,1.188,1.188,0,0,0-.629,1.146,1.16,1.16,0,0,0,.238.783,1.887,1.887,0,0,0,.685.517,12.256,12.256,0,0,0,1.635.489,5.59,5.59,0,0,1,2.641,1.258,2.8,2.8,0,0,1,.741,2,2.641,2.641,0,0,1-1.09,2.25,5.283,5.283,0,0,1-3.173.8A8.665,8.665,0,0,1,38.2,10.7Z" transform="translate(15.11 0.037)"/><path class="a" d="M44.64.22h1.789L48.26,8.3,50.314,1.52V.22H51.8L54.1,8.3,55.961.22h1.761L55.234,11.009H53.445L51.279,3.448l-2.292,7.561H47.156Z" transform="translate(17.753 0.087)"/><path class="a" d="M57.933.22h2.04l4.095,10.789H62.2L61.064,8.3H56.773l-1.076,2.8H53.81Zm2.879,6.6L58.939,1.869,57.066,6.817Z" transform="translate(21.399 0.087)"/><path class="a" d="M62.44.223h4.808a3.536,3.536,0,0,1,2.711.978,3.773,3.773,0,0,1,.908,2.627A3.452,3.452,0,0,1,69.875,6.4a3.676,3.676,0,0,1-2.7.978H64.257v3.634H62.44Zm4.4,5.716a2.292,2.292,0,0,0,1.635-.559,2.1,2.1,0,0,0,.559-1.551,2.334,2.334,0,0,0-.531-1.621,2.068,2.068,0,0,0-1.579-.559H64.257V5.939Z" transform="translate(24.83 0.085)"/><path class="a" d="M21.1,0H17.855L17.17,1.957H20.4Z" transform="translate(6.831)"/><path class="a" d="M14.86,10.111h3.228l2.7-7.631H17.557Z" transform="translate(5.913 0.986)"/><path class="a" d="M37.217,0H33.989l-.7,1.957h3.242Z" transform="translate(13.24)"/></g></g></svg>