<svg xmlns="http://www.w3.org/2000/svg" width="14" height="14.482" viewBox="0 0 14 14.482"><defs><style>.a{fill:#888;}</style></defs><g transform="translate(-8.144)"><g transform="translate(8.144 0)"><path class="a" d="M22.241,278.862a.364.364,0,0,0-.364-.364H9.481l2.179-2.179a.362.362,0,1,0-.512-.512l-2.8,2.8a.361.361,0,0,0,0,.512l2.8,2.8a.363.363,0,1,0,.515-.512l-2.179-2.179h12.4A.36.36,0,0,0,22.241,278.862Z" transform="translate(-8.241 -267.539)"/><path class="a" d="M22.037,2.9,19.24.107a.362.362,0,0,0-.512.512L20.906,2.8H8.508a.364.364,0,0,0,0,.728h12.4L18.727,5.7a.363.363,0,0,0,.515.512l2.8-2.8A.364.364,0,0,0,22.037,2.9Z" transform="translate(-8.144 0)"/></g></g></svg>