<svg xmlns="http://www.w3.org/2000/svg" width="20" height="19.813" viewBox="0 0 20 19.813"><defs><style>.a{fill:#f3f3f3;}</style></defs><g transform="translate(0.001 -1.916)"><g transform="translate(-0.001 1.916)"><path class="a" d="M116.949,11.528c2.268,0,4.106-2.152,4.106-4.806,0-3.681-1.838-4.806-4.106-4.806s-4.106,1.125-4.106,4.806C112.843,9.376,114.681,11.528,116.949,11.528Z" transform="translate(-106.949 -1.916)"/><path class="a" d="M19.9,228.264,17.639,223.6a1.084,1.084,0,0,0-.512-.5l-3.511-1.674a.244.244,0,0,0-.241.019,5.948,5.948,0,0,1-6.753,0,.244.244,0,0,0-.241-.019L2.871,223.1a1.083,1.083,0,0,0-.512.5L.1,228.264a.958.958,0,0,0,.086.985,1.156,1.156,0,0,0,.948.471H18.868a1.157,1.157,0,0,0,.948-.471A.958.958,0,0,0,19.9,228.264Z" transform="translate(0.001 -209.908)"/></g></g></svg>